# xmcd CD database file
#
# Track frame offsets:
#	150
#	25093
#	56638
#	109244
#	131677
#	170038
#	200297
#	222271
#	241375
#	249994
#	275019
#
# Disc length: 3920 seconds
#
# Revision: 1
# Processed by: cddbd v1.5PL3 Copyright (c) Steve Scherf et al.
# Submitted via: CDex 1.50
#
DISCID=a20f4e0b
DTITLE=Bjorn Fogelberg - Karooshi Porn
DYEAR=2003
DGENRE=New Age
TTITLE0=Trioxidation
TTITLE1=Quite derivative
TTITLE2=Sixfiveoneoh
TTITLE3=Lilly minou opened he
TTITLE4=Six wheels on soil
TTITLE5=Entity
TTITLE6=Wave
TTITLE7=Karooshi porn
TTITLE8=Interstate
TTITLE9=Low level format
TTITLE10=Life in a tube
EXTD=YEAR: 2003
EXTT0=
EXTT1=
EXTT2=
EXTT3=
EXTT4=
EXTT5=
EXTT6=
EXTT7=
EXTT8=
EXTT9=
EXTT10=
PLAYORDER=
